<?xml version="1.0" encoding="UTF-8" standalone="no"?>
<!-- Created with Inkscape (http://www.inkscape.org/) -->

<svg
   xmlns:dc="http://purl.org/dc/elements/1.1/"
   xmlns:cc="http://creativecommons.org/ns#"
   xmlns:rdf="http://www.w3.org/1999/02/22-rdf-syntax-ns#"
   xmlns:svg="http://www.w3.org/2000/svg"
   xmlns="http://www.w3.org/2000/svg"
   xmlns:xlink="http://www.w3.org/1999/xlink"
   xmlns:sodipodi="http://sodipodi.sourceforge.net/DTD/sodipodi-0.dtd"
   xmlns:inkscape="http://www.inkscape.org/namespaces/inkscape"
   width="210mm"
   height="297mm"
   viewBox="0 0 210 297"
   version="1.1"
   id="svg8"
   inkscape:version="0.92.2 (5c3e80d, 2017-08-06)"
   sodipodi:docname="logo.svg"
   inkscape:export-filename="C:\Users\Alexandre\Documents\projects\borela\themeable\art\logo.png"
   inkscape:export-xdpi="107.88892"
   inkscape:export-ydpi="107.88892">
  <defs
     id="defs2">
    <linearGradient
       inkscape:collect="always"
       id="linearGradient1105">
      <stop
         style="stop-color:#1a1a1a;stop-opacity:1"
         offset="0"
         id="stop1101" />
      <stop
         style="stop-color:#4d4d4d;stop-opacity:1"
         offset="1"
         id="stop1103" />
    </linearGradient>
    <linearGradient
       inkscape:collect="always"
       id="linearGradient1097">
      <stop
         style="stop-color:#1a1a1a;stop-opacity:1"
         offset="0"
         id="stop1093" />
      <stop
         style="stop-color:#4d4d4d;stop-opacity:1"
         offset="1"
         id="stop1095" />
    </linearGradient>
    <linearGradient
       inkscape:collect="always"
       id="linearGradient1089">
      <stop
         style="stop-color:#333333;stop-opacity:1"
         offset="0"
         id="stop1085" />
      <stop
         style="stop-color:#4d4d4d;stop-opacity:1"
         offset="1"
         id="stop1087" />
    </linearGradient>
    <linearGradient
       inkscape:collect="always"
       xlink:href="#linearGradient1089"
       id="linearGradient1091"
       x1="57.452381"
       y1="60.339657"
       x2="37.088913"
       y2="60.150669"
       gradientUnits="userSpaceOnUse"
       gradientTransform="translate(-29.482143,-43.65625)" />
    <linearGradient
       inkscape:collect="always"
       xlink:href="#linearGradient1097"
       id="linearGradient1099"
       x1="178.03572"
       y1="227.87683"
       x2="178.57143"
       y2="269.12683"
       gradientUnits="userSpaceOnUse"
       gradientTransform="matrix(0.26458333,0,0,0.26458333,-29.482143,-43.65625)" />
    <linearGradient
       inkscape:collect="always"
       xlink:href="#linearGradient1105"
       id="linearGradient1107"
       x1="39.915096"
       y1="58.329784"
       x2="39.900112"
       y2="61.178295"
       gradientUnits="userSpaceOnUse"
       gradientTransform="matrix(0.9359023,0,0,1,-26.456744,-43.65625)" />
  </defs>
  <sodipodi:namedview
     id="base"
     pagecolor="#ffffff"
     bordercolor="#666666"
     borderopacity="1.0"
     inkscape:pageopacity="0.0"
     inkscape:pageshadow="2"
     inkscape:zoom="0.35"
     inkscape:cx="400"
     inkscape:cy="560"
     inkscape:document-units="mm"
     inkscape:current-layer="layer1"
     showgrid="false"
     units="px"
     inkscape:snap-global="false" />
  <metadata
     id="metadata5">
    <rdf:RDF>
      <cc:Work
         rdf:about="">
        <dc:format>image/svg+xml</dc:format>
        <dc:type
           rdf:resource="http://purl.org/dc/dcmitype/StillImage" />
        <dc:title />
      </cc:Work>
    </rdf:RDF>
  </metadata>
  <g
     inkscape:label="Layer 1"
     inkscape:groupmode="layer"
     id="layer1">
    <path
       sodipodi:type="star"
       style="opacity:1;fill:#ffd600;fill-opacity:1;fill-rule:evenodd;stroke:none;stroke-width:1.93386114;stroke-linecap:round;stroke-linejoin:round;stroke-miterlimit:4;stroke-dasharray:none;stroke-dashoffset:0;stroke-opacity:1;paint-order:normal"
       id="path5448"
       sodipodi:sides="5"
       sodipodi:cx="75.670837"
       sodipodi:cy="27.918751"
       sodipodi:r1="5.3574042"
       sodipodi:r2="2.6787019"
       sodipodi:arg1="0.9964915"
       sodipodi:arg2="1.62481"
       inkscape:flatsided="false"
       inkscape:rounded="0"
       inkscape:randomized="0"
       d="m 78.581254,32.416667 -3.055033,-1.823121 -3.233788,1.483108 0.789834,-3.468884 -2.409815,-2.61721 3.543177,-0.320767 1.744441,-3.100633 1.39997,3.270639 3.487939,0.700914 -2.677949,2.342133 z"
       inkscape:transform-center-x="-0.00031235396"
       inkscape:transform-center-y="-0.51128891"
       transform="matrix(0.51004034,-0.02747921,0.02747921,0.51004034,-22.197998,-5.03585)" />
    <text
       xml:space="preserve"
       style="font-style:normal;font-variant:normal;font-weight:normal;font-stretch:normal;font-size:8.46666622px;line-height:25.27783012px;font-family:'Showcard Gothic';-inkscape-font-specification:'Showcard Gothic';letter-spacing:0px;word-spacing:0px;fill:#e040fb;fill-opacity:1;stroke:none;stroke-width:0.26458335px;stroke-linecap:butt;stroke-linejoin:miter;stroke-opacity:1;"
       x="30.766609"
       y="19.501465"
       id="text5456"
       inkscape:export-xdpi="93.08094"
       inkscape:export-ydpi="93.08094"><tspan
         sodipodi:role="line"
         id="tspan5454"
         x="30.766609"
         y="19.501465"
         style="font-style:normal;font-variant:normal;font-weight:normal;font-stretch:normal;font-size:8.46666622px;font-family:'Showcard Gothic';-inkscape-font-specification:'Showcard Gothic';fill:#e040fb;fill-opacity:1;stroke-width:0.26458335px;">Theme</tspan></text>
    <text
       xml:space="preserve"
       style="font-style:normal;font-variant:normal;font-weight:normal;font-stretch:normal;font-size:8.46666622px;line-height:25.27783012px;font-family:'Showcard Gothic';-inkscape-font-specification:'Showcard Gothic';letter-spacing:0px;word-spacing:0px;fill:#4d4d4d;fill-opacity:1;stroke:none;stroke-width:0.26458338px;stroke-linecap:butt;stroke-linejoin:miter;stroke-opacity:1;"
       x="30.540268"
       y="27.55043"
       id="text5456-0"
       inkscape:export-xdpi="93.08094"
       inkscape:export-ydpi="93.08094"><tspan
         sodipodi:role="line"
         id="tspan5454-7"
         x="30.540268"
         y="27.55043"
         style="font-style:normal;font-variant:normal;font-weight:normal;font-stretch:normal;font-size:8.46666622px;font-family:'Showcard Gothic';-inkscape-font-specification:'Showcard Gothic';fill:#4d4d4d;fill-opacity:1;stroke-width:0.26458338px;">React Component</tspan></text>
    <path
       style="opacity:1;fill:url(#linearGradient1099);fill-opacity:1;fill-rule:evenodd;stroke:none;stroke-width:0.70555556;stroke-linecap:round;stroke-linejoin:round;stroke-miterlimit:4;stroke-dasharray:none;stroke-dashoffset:0;stroke-opacity:1;paint-order:normal"
       d="m 23.987979,16.848584 a 7.3710926,1.4517185 0 0 1 -0.186553,0.05994 7.3710926,1.4517185 0 0 1 -0.445968,0.115239 7.3710926,1.4517185 0 0 1 -0.502296,0.106453 7.3710926,1.4517185 0 0 1 -0.553453,0.0956 7.3710926,1.4517185 0 0 1 -0.599448,0.08423 7.3710926,1.4517185 0 0 1 -0.639236,0.07235 7.3710926,1.4517185 0 0 1 -0.672311,0.05943 7.3710926,1.4517185 0 0 1 -0.699183,0.04547 7.3710926,1.4517185 0 0 1 -0.718817,0.03204 7.3710926,1.4517185 0 0 1 -0.73174,0.01757 7.3710926,1.4517185 0 0 1 -0.521414,0.0036 7.3710926,1.4517185 0 0 1 -0.735872,-0.0072 7.3710926,1.4517185 0 0 1 -0.728639,-0.0217 7.3710926,1.4517185 0 0 1 -0.71365,-0.03617 7.3710926,1.4517185 0 0 1 -0.691949,-0.04961 7.3710926,1.4517185 0 0 1 -0.663525,-0.06305 7.3710926,1.4517185 0 0 1 -0.628385,-0.07596 7.3710926,1.4517185 0 0 1 -0.586528,-0.08785 7.3710926,1.4517185 0 0 1 -0.538986,-0.0987 7.3710926,1.4517185 0 0 1 -0.486275,-0.109038 7.3710926,1.4517185 0 0 1 -0.428913,-0.11834 7.3710926,1.4517185 0 0 1 -0.0677,-0.02325 v 7.941635 c 0,1.554708 1.251839,2.806031 2.806547,2.806031 h 6.92826 c 1.554707,0 2.806031,-1.251323 2.806031,-2.806031 z"
       id="path1082"
       inkscape:connector-curvature="0" />
    <g
       id="g4619"
       transform="matrix(0.31291367,0,0,0.31291367,-5.6782369,5.337831)"
       style="stroke-width:3.19576955;fill:#ffffff">
      <path
         inkscape:connector-curvature="0"
         id="path4550"
         d="m 69.353419,47.740833 c -0.622359,0.359319 -0.992629,1.020052 -1.157505,1.795924 -0.164876,0.775871 -0.146669,1.695419 0.01916,2.724588 0.331652,2.058336 1.26475,4.557797 2.717166,7.073455 1.452416,2.515658 3.150463,4.573475 4.767209,5.889863 0.808373,0.658193 1.595621,1.133735 2.349984,1.378883 0.754362,0.24515 1.511709,0.254853 2.134067,-0.104466 0.62236,-0.35932 0.990939,-1.019076 1.155815,-1.794948 0.164875,-0.775871 0.146668,-1.695419 -0.01916,-2.724587 -0.331652,-2.058337 -1.26475,-4.557798 -2.717166,-7.073456 -1.452416,-2.515658 -3.150463,-4.573475 -4.767209,-5.889861 -0.808374,-0.658194 -1.595622,-1.133736 -2.349984,-1.378885 -0.754362,-0.24515 -1.510017,-0.255829 -2.132377,0.10349 z m 0.494141,0.855878 c 0.318844,-0.184085 0.748145,-0.210313 1.332327,-0.02047 0.584181,0.189845 1.28803,0.60092 2.031615,1.206361 1.487169,1.210883 3.135707,3.189017 4.537301,5.61665 1.401595,2.427634 2.290441,4.844376 2.595511,6.737744 0.152535,0.946684 0.156613,1.761772 0.02893,2.362611 -0.127681,0.600838 -0.365046,0.95951 -0.68389,1.143594 -0.318843,0.184085 -0.749836,0.21129 -1.334017,0.02144 -0.584181,-0.189845 -1.288031,-0.60092 -2.031615,-1.206361 -1.48717,-1.210883 -3.135707,-3.189017 -4.537302,-5.61665 -1.401595,-2.427633 -2.290441,-4.844375 -2.59551,-6.737744 -0.152536,-0.946684 -0.156613,-1.761772 -0.02893,-2.362611 0.12768,-0.600838 0.366736,-0.960486 0.68558,-1.14457 z"
         style="color:#000000;font-style:normal;font-variant:normal;font-weight:normal;font-stretch:normal;font-size:medium;line-height:normal;font-family:sans-serif;font-variant-ligatures:normal;font-variant-position:normal;font-variant-caps:normal;font-variant-numeric:normal;font-variant-alternates:normal;font-feature-settings:normal;text-indent:0;text-align:start;text-decoration:none;text-decoration-line:none;text-decoration-style:solid;text-decoration-color:#000000;letter-spacing:normal;word-spacing:normal;text-transform:none;writing-mode:lr-tb;direction:ltr;text-orientation:mixed;dominant-baseline:auto;baseline-shift:baseline;text-anchor:start;white-space:normal;shape-padding:0;clip-rule:nonzero;display:inline;overflow:visible;visibility:visible;opacity:1;isolation:auto;mix-blend-mode:normal;color-interpolation:sRGB;color-interpolation-filters:linearRGB;solid-color:#000000;solid-opacity:1;vector-effect:none;fill:#ffffff;fill-opacity:1;fill-rule:evenodd;stroke:none;stroke-width:3.15671039;stroke-linecap:round;stroke-linejoin:round;stroke-miterlimit:4;stroke-dasharray:none;stroke-dashoffset:0;stroke-opacity:1;paint-order:normal;color-rendering:auto;image-rendering:auto;shape-rendering:auto;text-rendering:auto;enable-background:accumulate" />
      <path
         inkscape:connector-curvature="0"
         id="ellipse4570"
         d="m 80.182351,47.741188 c -0.622359,-0.359319 -1.378014,-0.34864 -2.132377,-0.103491 -0.754362,0.245149 -1.54161,0.720691 -2.349983,1.378885 -1.616746,1.316386 -3.316486,3.373227 -4.768901,5.888885 -1.452416,2.515658 -2.383823,5.016096 -2.715474,7.074432 -0.165826,1.029169 -0.184033,1.948716 -0.01916,2.724588 0.164876,0.775872 0.533455,1.435627 1.155814,1.794946 0.622359,0.359319 1.378014,0.348641 2.132376,0.103491 0.754363,-0.245149 1.541611,-0.72069 2.349984,-1.378884 1.616745,-1.316387 3.316485,-3.373228 4.768901,-5.888886 1.452415,-2.515657 2.383822,-5.016095 2.715474,-7.074431 0.165826,-1.029169 0.184033,-1.948717 0.01916,-2.724588 -0.164875,-0.775872 -0.533454,-1.435628 -1.155813,-1.794947 z m -0.494141,0.855877 c 0.318844,0.184084 0.5579,0.543733 0.68558,1.144571 0.127681,0.600838 0.123604,1.415927 -0.02893,2.362611 -0.30507,1.893368 -1.195607,4.309134 -2.597202,6.736767 -1.401594,2.427633 -3.048441,4.406744 -4.535611,5.617626 -0.743584,0.605442 -1.447434,1.016517 -2.031615,1.206361 -0.584181,0.189845 -1.015174,0.16264 -1.334017,-0.02144 -0.318844,-0.184085 -0.556209,-0.542756 -0.68389,-1.143595 -0.12768,-0.600838 -0.123603,-1.415926 0.02893,-2.362611 0.30507,-1.893367 1.193917,-4.31011 2.595511,-6.737743 1.401594,-2.427633 3.050132,-4.405767 4.537301,-5.61665 0.743585,-0.605442 1.447435,-1.016516 2.031616,-1.206361 0.584181,-0.189845 1.013483,-0.163617 1.332326,0.02047 z"
         style="color:#000000;font-style:normal;font-variant:normal;font-weight:normal;font-stretch:normal;font-size:medium;line-height:normal;font-family:sans-serif;font-variant-ligatures:normal;font-variant-position:normal;font-variant-caps:normal;font-variant-numeric:normal;font-variant-alternates:normal;font-feature-settings:normal;text-indent:0;text-align:start;text-decoration:none;text-decoration-line:none;text-decoration-style:solid;text-decoration-color:#000000;letter-spacing:normal;word-spacing:normal;text-transform:none;writing-mode:lr-tb;direction:ltr;text-orientation:mixed;dominant-baseline:auto;baseline-shift:baseline;text-anchor:start;white-space:normal;shape-padding:0;clip-rule:nonzero;display:inline;overflow:visible;visibility:visible;opacity:1;isolation:auto;mix-blend-mode:normal;color-interpolation:sRGB;color-interpolation-filters:linearRGB;solid-color:#000000;solid-opacity:1;vector-effect:none;fill:#ffffff;fill-opacity:1;fill-rule:evenodd;stroke:none;stroke-width:3.15671039;stroke-linecap:round;stroke-linejoin:round;stroke-miterlimit:4;stroke-dasharray:none;stroke-dashoffset:0;stroke-opacity:1;paint-order:normal;color-rendering:auto;image-rendering:auto;shape-rendering:auto;text-rendering:auto;enable-background:accumulate" />
      <path
         inkscape:connector-curvature="0"
         id="ellipse4572"
         d="m 85.597656,57.121094 c 0,-0.718639 -0.387076,-1.369669 -0.976562,-1.900391 -0.589487,-0.530722 -1.394942,-0.974728 -2.369141,-1.345703 -1.948397,-0.74195 -4.579544,-1.183594 -7.484375,-1.183594 -2.904831,0 -5.535978,0.441644 -7.484375,1.183594 -0.974199,0.370975 -1.779654,0.814981 -2.369141,1.345703 -0.589486,0.530722 -0.976562,1.181752 -0.976562,1.900391 0,0.718638 0.387076,1.367715 0.976562,1.898437 0.589487,0.530722 1.394942,0.974728 2.369141,1.345703 1.948397,0.74195 4.579544,1.185547 7.484375,1.185547 2.904831,0 5.535978,-0.443597 7.484375,-1.185547 0.974199,-0.370975 1.779654,-0.814981 2.369141,-1.345703 0.589486,-0.530722 0.976562,-1.179799 0.976562,-1.898437 z m -0.988281,0 c 0,0.368169 -0.191936,0.753068 -0.648437,1.164062 -0.456502,0.410994 -1.164427,0.815008 -2.060547,1.15625 -1.792241,0.682485 -4.329624,1.121094 -7.132813,1.121094 -2.803189,0 -5.340572,-0.438609 -7.132812,-1.121094 -0.89612,-0.341242 -1.604046,-0.745256 -2.060547,-1.15625 -0.456501,-0.410994 -0.648438,-0.795893 -0.648438,-1.164062 0,-0.368169 0.191937,-0.755022 0.648438,-1.166016 0.456501,-0.410994 1.164427,-0.815007 2.060547,-1.15625 1.79224,-0.682485 4.329623,-1.121094 7.132812,-1.121094 2.803189,0 5.340572,0.438609 7.132813,1.121094 0.89612,0.341243 1.604045,0.745256 2.060547,1.15625 0.456501,0.410994 0.648437,0.797847 0.648437,1.166016 z"
         style="color:#000000;font-style:normal;font-variant:normal;font-weight:normal;font-stretch:normal;font-size:medium;line-height:normal;font-family:sans-serif;font-variant-ligatures:normal;font-variant-position:normal;font-variant-caps:normal;font-variant-numeric:normal;font-variant-alternates:normal;font-feature-settings:normal;text-indent:0;text-align:start;text-decoration:none;text-decoration-line:none;text-decoration-style:solid;text-decoration-color:#000000;letter-spacing:normal;word-spacing:normal;text-transform:none;writing-mode:lr-tb;direction:ltr;text-orientation:mixed;dominant-baseline:auto;baseline-shift:baseline;text-anchor:start;white-space:normal;shape-padding:0;clip-rule:nonzero;display:inline;overflow:visible;visibility:visible;opacity:1;isolation:auto;mix-blend-mode:normal;color-interpolation:sRGB;color-interpolation-filters:linearRGB;solid-color:#000000;solid-opacity:1;vector-effect:none;fill:#ffffff;fill-opacity:1;fill-rule:evenodd;stroke:none;stroke-width:3.15671039;stroke-linecap:round;stroke-linejoin:round;stroke-miterlimit:4;stroke-dasharray:none;stroke-dashoffset:0;stroke-opacity:1;paint-order:normal;color-rendering:auto;image-rendering:auto;shape-rendering:auto;text-rendering:auto;enable-background:accumulate" />
      <circle
         style="opacity:1;fill:#ffffff;fill-opacity:1;fill-rule:evenodd;stroke:none;stroke-width:3.15671015;stroke-linecap:round;stroke-linejoin:round;stroke-miterlimit:4;stroke-dasharray:none;stroke-dashoffset:0;stroke-opacity:1;paint-order:normal"
         id="circle4613"
         cx="36.355804"
         cy="86.934258"
         r="2.1993489"
         transform="rotate(-30)" />
    </g>
    <ellipse
       style="opacity:1;fill:url(#linearGradient1091);fill-opacity:1;fill-rule:evenodd;stroke:none;stroke-width:0.70555556;stroke-linecap:round;stroke-linejoin:round;stroke-miterlimit:4;stroke-dasharray:none;stroke-dashoffset:0;stroke-opacity:1;paint-order:normal"
       id="path1013"
       cx="17.71764"
       cy="16.740101"
       rx="10.347098"
       ry="2.5040922" />
    <ellipse
       ry="1.4517186"
       rx="6.898623"
       cy="16.088631"
       cx="17.71764"
       id="ellipse1027"
       style="opacity:1;fill:url(#linearGradient1107);fill-opacity:1;fill-rule:evenodd;stroke:none;stroke-width:0.70555556;stroke-linecap:round;stroke-linejoin:round;stroke-miterlimit:4;stroke-dasharray:none;stroke-dashoffset:0;stroke-opacity:1;paint-order:normal" />
    <path
       style="opacity:1;fill:#e040fb;fill-opacity:1;fill-rule:evenodd;stroke:none;stroke-width:0.70555556;stroke-linecap:round;stroke-linejoin:round;stroke-miterlimit:4;stroke-dasharray:none;stroke-dashoffset:0;stroke-opacity:1;paint-order:normal"
       d="m 14.253688,12.38374 c -1.554708,0 -2.806547,1.251839 -2.806547,2.806547 v 0.138493 0.158128 1.20251 a 6.898623,1.4517185 0 0 0 0.122473,0.05788 6.898623,1.4517185 0 0 0 0.343131,0.125571 6.898623,1.4517185 0 0 0 0.40101,0.11834 6.898623,1.4517185 0 0 0 0.455269,0.109038 6.898623,1.4517185 0 0 0 0.504362,0.0987 6.898623,1.4517185 0 0 0 0.548804,0.08785 6.898623,1.4517185 0 0 0 0.588078,0.07596 6.898623,1.4517185 0 0 0 0.621149,0.06305 6.898623,1.4517185 0 0 0 0.647507,0.04961 6.898623,1.4517185 0 0 0 0.668176,0.03617 6.898623,1.4517185 0 0 0 0.681612,0.0217 6.898623,1.4517185 0 0 0 0.688848,0.0072 7.3710926,1.4517185 0 0 0 0.487825,-0.0036 6.898623,1.4517185 0 0 0 0.684713,-0.01757 6.898623,1.4517185 0 0 0 0.672828,-0.03204 6.898623,1.4517185 0 0 0 0.65474,-0.04547 6.898623,1.4517185 0 0 0 0.629417,-0.05943 6.898623,1.4517185 0 0 0 0.597898,-0.07235 6.898623,1.4517185 0 0 0 0.560689,-0.08423 6.898623,1.4517185 0 0 0 0.518313,-0.0956 6.898623,1.4517185 0 0 0 0.470258,-0.106453 6.898623,1.4517185 0 0 0 0.417028,-0.115239 6.898623,1.4517185 0 0 0 0.360701,-0.124024 6.898623,1.4517185 0 0 0 0.216009,-0.09405 v -1.203026 -0.159681 -0.137459 c 0,-1.554708 -1.251324,-2.806547 -2.806031,-2.806547 z"
       id="path1112"
       inkscape:connector-curvature="0" />
    <path
       style="opacity:1;fill:#ffd600;fill-opacity:1;fill-rule:evenodd;stroke:none;stroke-width:2.66666675;stroke-linecap:round;stroke-linejoin:round;stroke-miterlimit:4;stroke-dasharray:none;stroke-dashoffset:0;stroke-opacity:1;paint-order:normal"
       d="M 53.873047 46.804688 C 53.038485 46.804688 52.229277 46.909239 51.451172 47.089844 L 45.757812 63.988281 A 26.073536 5.4868101 0 0 0 46.541016 64.21875 A 26.073536 5.4868101 0 0 0 48.261719 64.630859 A 26.073536 5.4868101 0 0 0 50.167969 65.003906 A 26.073536 5.4868101 0 0 0 52.242188 65.335938 A 26.073536 5.4868101 0 0 0 54.306641 65.603516 L 60.638672 46.804688 L 53.873047 46.804688 z M 67.740234 46.804688 L 61.222656 66.154297 A 26.073536 5.4868101 0 0 0 61.785156 66.185547 A 26.073536 5.4868101 0 0 0 64.361328 66.267578 A 26.073536 5.4868101 0 0 0 66.964844 66.294922 A 27.859248 5.4868101 0 0 0 68.808594 66.28125 A 26.073536 5.4868101 0 0 0 70.287109 66.244141 L 76.835938 46.804688 L 67.740234 46.804688 z M 82.310547 47.046875 L 75.941406 65.955078 A 26.073536 5.4868101 0 0 0 76.414062 65.921875 A 26.073536 5.4868101 0 0 0 78.792969 65.697266 A 26.073536 5.4868101 0 0 0 81.052734 65.423828 A 26.073536 5.4868101 0 0 0 83.171875 65.105469 A 26.073536 5.4868101 0 0 0 85.130859 64.744141 A 26.073536 5.4868101 0 0 0 85.46875 64.667969 L 89.523438 52.630859 C 88.105295 49.816429 85.47926 47.727608 82.310547 47.046875 z "
       transform="scale(0.26458333)"
       id="rect862" />
    <g
       transform="translate(-9.2255099,-9.622774)"
       id="g1011">
      <g
         style="stroke-width:1.95778966"
         id="g991"
         transform="matrix(0.39643532,0,0,0.36594029,10.113833,4.3177246)">
        <circle
           r="3.4017856"
           cy="48.66964"
           cx="38.175594"
           id="circle983"
           style="fill:#000000;fill-opacity:1;stroke:none;stroke-width:0.51799852;stroke-opacity:0.27777782" />
        <circle
           r="0.93544334"
           cy="47.136398"
           cx="37.284096"
           id="circle985"
           style="fill:#ffffff;fill-opacity:1;stroke:none;stroke-width:0.51799852;stroke-opacity:0.27777782" />
        <circle
           r="0.46772167"
           cy="47.67094"
           cx="39.188396"
           id="circle987"
           style="fill:#ffffff;fill-opacity:1;stroke:none;stroke-width:0.25899926;stroke-opacity:0.27777782" />
        <circle
           r="1.4365737"
           cy="49.775688"
           cx="37.01683"
           id="circle989"
           style="fill:#ffffff;fill-opacity:1;stroke:none;stroke-width:0.79549778;stroke-opacity:0.27777782" />
      </g>
      <g
         style="stroke-width:1.95778966"
         id="g1001"
         transform="matrix(0.39643531,0,0,0.36594029,13.504154,4.3277823)">
        <circle
           r="3.4017856"
           cy="48.66964"
           cx="38.175594"
           id="circle993"
           style="fill:#000000;fill-opacity:1;stroke:none;stroke-width:0.51799852;stroke-opacity:0.27777782" />
        <circle
           r="0.93544334"
           cy="47.136398"
           cx="37.284096"
           id="circle995"
           style="fill:#ffffff;fill-opacity:1;stroke:none;stroke-width:0.51799852;stroke-opacity:0.27777782" />
        <circle
           r="0.46772167"
           cy="47.67094"
           cx="39.188396"
           id="circle997"
           style="fill:#ffffff;fill-opacity:1;stroke:none;stroke-width:0.25899926;stroke-opacity:0.27777782" />
        <circle
           r="1.4365737"
           cy="49.775688"
           cx="37.01683"
           id="circle999"
           style="fill:#ffffff;fill-opacity:1;stroke:none;stroke-width:0.79549778;stroke-opacity:0.27777782" />
      </g>
      <g
         id="g1009">
        <path
           inkscape:connector-curvature="0"
           id="path1003"
           d="m 27.824543,23.962584 c -0.148613,0.23457 -0.512762,0.395438 -0.890873,0.40204 -0.37811,0.0066 -0.736696,-0.134833 -0.896858,-0.399047 L 25.708596,24.1651 c 0.255086,0.420809 0.755753,0.591923 1.232057,0.583606 0.476305,-0.0083 0.961533,-0.189832 1.209113,-0.580613 z"
           style="color:#000000;font-style:normal;font-variant:normal;font-weight:normal;font-stretch:normal;font-size:medium;line-height:normal;font-family:sans-serif;font-variant-ligatures:normal;font-variant-position:normal;font-variant-caps:normal;font-variant-numeric:normal;font-variant-alternates:normal;font-feature-settings:normal;text-indent:0;text-align:start;text-decoration:none;text-decoration-line:none;text-decoration-style:solid;text-decoration-color:#000000;letter-spacing:normal;word-spacing:normal;text-transform:none;writing-mode:lr-tb;direction:ltr;text-orientation:mixed;dominant-baseline:auto;baseline-shift:baseline;text-anchor:start;white-space:normal;shape-padding:0;clip-rule:nonzero;display:inline;overflow:visible;visibility:visible;opacity:1;isolation:auto;mix-blend-mode:normal;color-interpolation:sRGB;color-interpolation-filters:linearRGB;solid-color:#000000;solid-opacity:1;vector-effect:none;fill:#000000;fill-opacity:1;fill-rule:nonzero;stroke:none;stroke-width:0.75225592;stroke-linecap:butt;stroke-linejoin:miter;stroke-miterlimit:4;stroke-dasharray:none;stroke-dashoffset:0;stroke-opacity:1;color-rendering:auto;image-rendering:auto;shape-rendering:auto;text-rendering:auto;enable-background:accumulate" />
        <path
           inkscape:connector-curvature="0"
           id="path1005"
           d="m 27.662929,23.547575 c -0.03176,0.270312 0.113147,0.506939 0.299285,0.660423 0.186137,0.153484 0.435206,0.249763 0.679377,0.160616 l -0.131685,-0.361138 c -0.06038,0.02204 -0.193446,-0.0062 -0.303276,-0.09677 -0.10983,-0.09056 -0.174294,-0.218801 -0.162612,-0.31824 z"
           style="color:#000000;font-style:normal;font-variant:normal;font-weight:normal;font-stretch:normal;font-size:medium;line-height:normal;font-family:sans-serif;font-variant-ligatures:normal;font-variant-position:normal;font-variant-caps:normal;font-variant-numeric:normal;font-variant-alternates:normal;font-feature-settings:normal;text-indent:0;text-align:start;text-decoration:none;text-decoration-line:none;text-decoration-style:solid;text-decoration-color:#000000;letter-spacing:normal;word-spacing:normal;text-transform:none;writing-mode:lr-tb;direction:ltr;text-orientation:mixed;dominant-baseline:auto;baseline-shift:baseline;text-anchor:start;white-space:normal;shape-padding:0;clip-rule:nonzero;display:inline;overflow:visible;visibility:visible;opacity:1;isolation:auto;mix-blend-mode:normal;color-interpolation:sRGB;color-interpolation-filters:linearRGB;solid-color:#000000;solid-opacity:1;vector-effect:none;fill:#000000;fill-opacity:1;fill-rule:nonzero;stroke:none;stroke-width:0.75225592;stroke-linecap:butt;stroke-linejoin:miter;stroke-miterlimit:4;stroke-dasharray:none;stroke-dashoffset:0;stroke-opacity:1;color-rendering:auto;image-rendering:auto;shape-rendering:auto;text-rendering:auto;enable-background:accumulate" />
        <path
           inkscape:connector-curvature="0"
           id="path1007"
           d="m 26.164507,23.50767 -0.353156,0.151638 c 0.02541,0.05904 0.0054,0.193505 -0.07881,0.308264 -0.08423,0.114759 -0.208324,0.186631 -0.308264,0.180569 l -0.02394,0.383085 c 0.271672,0.01648 0.499711,-0.141708 0.642466,-0.336197 0.142754,-0.194489 0.224471,-0.448597 0.121709,-0.687359 z"
           style="color:#000000;font-style:normal;font-variant:normal;font-weight:normal;font-stretch:normal;font-size:medium;line-height:normal;font-family:sans-serif;font-variant-ligatures:normal;font-variant-position:normal;font-variant-caps:normal;font-variant-numeric:normal;font-variant-alternates:normal;font-feature-settings:normal;text-indent:0;text-align:start;text-decoration:none;text-decoration-line:none;text-decoration-style:solid;text-decoration-color:#000000;letter-spacing:normal;word-spacing:normal;text-transform:none;writing-mode:lr-tb;direction:ltr;text-orientation:mixed;dominant-baseline:auto;baseline-shift:baseline;text-anchor:start;white-space:normal;shape-padding:0;clip-rule:nonzero;display:inline;overflow:visible;visibility:visible;opacity:1;isolation:auto;mix-blend-mode:normal;color-interpolation:sRGB;color-interpolation-filters:linearRGB;solid-color:#000000;solid-opacity:1;vector-effect:none;fill:#000000;fill-opacity:1;fill-rule:nonzero;stroke:none;stroke-width:0.75225592;stroke-linecap:butt;stroke-linejoin:miter;stroke-miterlimit:4;stroke-dasharray:none;stroke-dashoffset:0;stroke-opacity:1;color-rendering:auto;image-rendering:auto;shape-rendering:auto;text-rendering:auto;enable-background:accumulate" />
      </g>
    </g>
    <path
       sodipodi:type="star"
       style="opacity:1;fill:#ffd600;fill-opacity:1;fill-rule:evenodd;stroke:none;stroke-width:1.93386114;stroke-linecap:round;stroke-linejoin:round;stroke-miterlimit:4;stroke-dasharray:none;stroke-dashoffset:0;stroke-opacity:1;paint-order:normal"
       id="path5448-4"
       sodipodi:sides="5"
       sodipodi:cx="75.670837"
       sodipodi:cy="27.918751"
       sodipodi:r1="5.3574042"
       sodipodi:r2="2.6787019"
       sodipodi:arg1="0.9964915"
       sodipodi:arg2="1.62481"
       inkscape:flatsided="false"
       inkscape:rounded="0"
       inkscape:randomized="0"
       d="m 78.581254,32.416667 -3.055033,-1.823121 -3.233788,1.483108 0.789834,-3.468884 -2.409815,-2.61721 3.543177,-0.320767 1.744441,-3.100633 1.39997,3.270639 3.487939,0.700914 -2.677949,2.342133 z"
       inkscape:transform-center-x="-0.00031235396"
       inkscape:transform-center-y="-0.51128891"
       transform="matrix(0.51004033,-0.02747921,0.02747921,0.51004033,-14.463343,-2.8697692)" />
    <path
       sodipodi:type="star"
       style="opacity:1;fill:#ffd600;fill-opacity:1;fill-rule:evenodd;stroke:none;stroke-width:1.93386114;stroke-linecap:round;stroke-linejoin:round;stroke-miterlimit:4;stroke-dasharray:none;stroke-dashoffset:0;stroke-opacity:1;paint-order:normal"
       id="path5448-8"
       sodipodi:sides="5"
       sodipodi:cx="75.670837"
       sodipodi:cy="27.918751"
       sodipodi:r1="5.3574042"
       sodipodi:r2="2.6787019"
       sodipodi:arg1="0.9964915"
       sodipodi:arg2="1.62481"
       inkscape:flatsided="false"
       inkscape:rounded="0"
       inkscape:randomized="0"
       d="m 78.581254,32.416667 -3.055033,-1.823121 -3.233788,1.483108 0.789834,-3.468884 -2.409815,-2.61721 3.543177,-0.320767 1.744441,-3.100633 1.39997,3.270639 3.487939,0.700914 -2.677949,2.342133 z"
       inkscape:transform-center-x="-0.00031235396"
       inkscape:transform-center-y="-0.51128891"
       transform="matrix(0.51004033,-0.02747921,0.02747921,0.51004033,-29.346155,-2.444545)" />
    <text
       inkscape:export-ydpi="93.08094"
       inkscape:export-xdpi="93.08094"
       id="text860"
       y="19.501465"
       x="59.043953"
       style="font-style:normal;font-variant:normal;font-weight:normal;font-stretch:normal;font-size:8.46666622px;line-height:25.27783012px;font-family:'Showcard Gothic';-inkscape-font-specification:'Showcard Gothic';letter-spacing:0px;word-spacing:0px;fill:#ffd600;fill-opacity:1;stroke:none;stroke-width:0.26458335px;stroke-linecap:butt;stroke-linejoin:miter;stroke-opacity:1;"
       xml:space="preserve"><tspan
         style="font-style:normal;font-variant:normal;font-weight:normal;font-stretch:normal;font-size:8.46666622px;font-family:'Showcard Gothic';-inkscape-font-specification:'Showcard Gothic';fill:#ffd600;fill-opacity:1;stroke-width:0.26458335px;"
         y="19.501465"
         x="59.043953"
         id="tspan858"
         sodipodi:role="line">able</tspan></text>
  </g>
</svg>
